<svg width="36" height="36" viewBox="0 0 36 36" fill="none" xmlns="http://www.w3.org/2000/svg">
<rect x="0.634521" y="0.848816" width="33.9522" height="33.9522" rx="16.9761" fill="#F82C2C"/>
<path d="M22.6352 12.8199C22.8457 12.8262 23.0452 12.9154 23.1903 13.0681C23.3353 13.2208 23.4143 13.4246 23.4099 13.6351L23.2184 21.1351C23.2195 21.242 23.199 21.348 23.1582 21.4467C23.1174 21.5455 23.0571 21.635 22.981 21.71C22.9048 21.785 22.8143 21.8438 22.7149 21.8831C22.6155 21.9223 22.5092 21.9411 22.4024 21.9384C22.2956 21.9357 22.1904 21.9115 22.0931 21.8672C21.9959 21.8229 21.9085 21.7596 21.8363 21.6808C21.764 21.602 21.7084 21.5095 21.6727 21.4088C21.637 21.3081 21.6219 21.2012 21.6284 21.0946L21.7709 15.5146L13.9333 22.962C13.7803 23.1074 13.5758 23.186 13.3648 23.1806C13.1539 23.1753 12.9537 23.0863 12.8083 22.9333C12.6629 22.7803 12.5843 22.5758 12.5897 22.3648C12.595 22.1539 12.684 21.9537 12.837 21.8083L20.6746 14.3608L15.0946 14.2184C14.8888 14.2059 14.6959 14.114 14.5565 13.962C14.4171 13.8101 14.3422 13.61 14.3474 13.4038C14.3527 13.1977 14.4378 13.0017 14.5847 12.857C14.7316 12.7124 14.929 12.6304 15.1352 12.6284L22.6352 12.8199Z" fill="white"/>
</svg>
