<svg width="161" height="158" viewBox="0 0 161 158" fill="none" xmlns="http://www.w3.org/2000/svg">
<path d="M121.23 19.8964L159.388 27.2849L151.872 64.8972C148.896 79.7906 134.396 89.5235 119.485 86.6364L81.3268 79.2478L88.8426 41.6356C91.8187 26.7422 106.319 17.0092 121.23 19.8964Z" fill="#F82C2C" stroke="white"/>
<path d="M21.5231 39.5454L29.0802 1.98583L67.2547 9.51679C82.1554 12.4563 91.8062 26.9096 88.8104 41.799L81.2532 79.3587L43.0787 71.8277C28.1781 68.8881 18.5273 54.4349 21.5231 39.5454Z" fill="#F82C2C" stroke="white"/>
<path d="M140.313 118.75L133.393 156.428L95.0948 149.533C80.1473 146.841 70.2538 132.55 72.9971 117.612L79.9163 79.9336L118.215 86.8293C133.162 89.5206 143.056 103.812 140.313 118.75Z" fill="#F82C2C" stroke="white"/>
<path d="M43.516 71.9743L81.3372 81.1984L72.194 118.384C68.5675 133.132 53.6662 142.171 38.9108 138.572L1.08965 129.348L10.2329 92.163C13.8593 77.4144 28.7607 68.3756 43.516 71.9743Z" fill="#F82C2C" stroke="white"/>
<path d="M83.9385 67.2094L85.5094 79.8265L97.9943 82.2314L86.4802 87.6242L88.0511 100.241L79.3641 90.9572L67.8499 96.3501L73.9952 85.2193L65.3082 75.9352L77.7932 78.3401L83.9385 67.2094Z" fill="white"/>
</svg>
